<mxfile host="app.diagrams.net" modified="2023-10-14T02:33:42.917Z" agent="Mozilla/5.0 (Macintosh; Intel Mac OS X 10_15_7) AppleWebKit/537.36 (KHTML, like Gecko) Chrome/117.0.0.0 Safari/537.36" etag="nugdTzK3FyswpZirRwaJ" version="22.0.4" type="github">
  <diagram name="Page-1" id="Bvtf4x1M2FmmLPmgVMMP">
    <mxGraphModel dx="2182" dy="1846" grid="1" gridSize="10" guides="1" tooltips="1" connect="1" arrows="1" fold="1" page="1" pageScale="1" pageWidth="850" pageHeight="1100" math="0" shadow="0">
      <root>
        <mxCell id="0" />
        <mxCell id="1" parent="0" />
        <mxCell id="542AWMEH_CubDqkKcl6f-2" value="&amp;lt;&amp;lt;subsystem&amp;gt;&amp;gt; UI" style="swimlane;whiteSpace=wrap;html=1;" parent="1" vertex="1">
          <mxGeometry x="-330" y="-190" width="430" height="600" as="geometry" />
        </mxCell>
        <mxCell id="542AWMEH_CubDqkKcl6f-46" value=":Authentication" style="verticalAlign=top;align=left;overflow=fill;fontSize=12;fontFamily=Helvetica;html=1;whiteSpace=wrap;" parent="542AWMEH_CubDqkKcl6f-2" vertex="1">
          <mxGeometry x="135" y="390" width="160" height="190" as="geometry" />
        </mxCell>
        <mxCell id="542AWMEH_CubDqkKcl6f-38" value="&lt;br&gt;&lt;b&gt;:NotificationServices&lt;br&gt;&lt;/b&gt;" style="html=1;dropTarget=0;whiteSpace=wrap;" parent="542AWMEH_CubDqkKcl6f-2" vertex="1">
          <mxGeometry x="230" y="160" width="177.5" height="90" as="geometry" />
        </mxCell>
        <mxCell id="542AWMEH_CubDqkKcl6f-39" value="" style="shape=module;jettyWidth=8;jettyHeight=4;" parent="542AWMEH_CubDqkKcl6f-38" vertex="1">
          <mxGeometry x="1" width="20" height="20" relative="1" as="geometry">
            <mxPoint x="-27" y="7" as="offset" />
          </mxGeometry>
        </mxCell>
        <mxCell id="542AWMEH_CubDqkKcl6f-40" value="&lt;br&gt;&lt;b&gt;:Register&lt;/b&gt;" style="html=1;dropTarget=0;whiteSpace=wrap;" parent="542AWMEH_CubDqkKcl6f-2" vertex="1">
          <mxGeometry x="150" y="495" width="130" height="70" as="geometry" />
        </mxCell>
        <mxCell id="542AWMEH_CubDqkKcl6f-41" value="" style="shape=module;jettyWidth=8;jettyHeight=4;" parent="542AWMEH_CubDqkKcl6f-40" vertex="1">
          <mxGeometry x="1" width="20" height="20" relative="1" as="geometry">
            <mxPoint x="-27" y="7" as="offset" />
          </mxGeometry>
        </mxCell>
        <mxCell id="542AWMEH_CubDqkKcl6f-44" value="&lt;br&gt;&lt;b&gt;:Log In&lt;/b&gt;" style="html=1;dropTarget=0;whiteSpace=wrap;" parent="542AWMEH_CubDqkKcl6f-2" vertex="1">
          <mxGeometry x="150" y="415" width="130" height="70" as="geometry" />
        </mxCell>
        <mxCell id="542AWMEH_CubDqkKcl6f-45" value="" style="shape=module;jettyWidth=8;jettyHeight=4;" parent="542AWMEH_CubDqkKcl6f-44" vertex="1">
          <mxGeometry x="1" width="20" height="20" relative="1" as="geometry">
            <mxPoint x="-27" y="7" as="offset" />
          </mxGeometry>
        </mxCell>
        <mxCell id="542AWMEH_CubDqkKcl6f-60" value="" style="ellipse;whiteSpace=wrap;html=1;align=center;aspect=fixed;fillColor=none;strokeColor=none;resizable=0;perimeter=centerPerimeter;rotatable=0;allowArrows=0;points=[];outlineConnect=1;" parent="542AWMEH_CubDqkKcl6f-2" vertex="1">
          <mxGeometry x="280" y="100" width="10" height="10" as="geometry" />
        </mxCell>
        <mxCell id="542AWMEH_CubDqkKcl6f-82" value="&lt;b&gt;:TriageServices&lt;br&gt;&lt;/b&gt;" style="html=1;dropTarget=0;whiteSpace=wrap;" parent="542AWMEH_CubDqkKcl6f-2" vertex="1">
          <mxGeometry x="230" y="280" width="177.5" height="90" as="geometry" />
        </mxCell>
        <mxCell id="542AWMEH_CubDqkKcl6f-83" value="" style="shape=module;jettyWidth=8;jettyHeight=4;" parent="542AWMEH_CubDqkKcl6f-82" vertex="1">
          <mxGeometry x="1" width="20" height="20" relative="1" as="geometry">
            <mxPoint x="-27" y="7" as="offset" />
          </mxGeometry>
        </mxCell>
        <mxCell id="542AWMEH_CubDqkKcl6f-84" value="&lt;b&gt;:ERLoadService&lt;/b&gt;" style="html=1;dropTarget=0;whiteSpace=wrap;" parent="542AWMEH_CubDqkKcl6f-2" vertex="1">
          <mxGeometry x="227.5" y="40" width="180" height="90" as="geometry" />
        </mxCell>
        <mxCell id="542AWMEH_CubDqkKcl6f-85" value="" style="shape=module;jettyWidth=8;jettyHeight=4;" parent="542AWMEH_CubDqkKcl6f-84" vertex="1">
          <mxGeometry x="1" width="20" height="20" relative="1" as="geometry">
            <mxPoint x="-27" y="7" as="offset" />
          </mxGeometry>
        </mxCell>
        <mxCell id="dVPr_QUaL5CJiFu6xjOv-3" value="User Sign In" style="text;html=1;strokeColor=none;fillColor=none;align=center;verticalAlign=middle;whiteSpace=wrap;rounded=0;" parent="542AWMEH_CubDqkKcl6f-2" vertex="1">
          <mxGeometry x="347.5" y="450" width="60" height="30" as="geometry" />
        </mxCell>
        <mxCell id="542AWMEH_CubDqkKcl6f-1" value="&amp;lt;&amp;lt;subsystem&amp;gt;&amp;gt; Health Service Management" style="swimlane;whiteSpace=wrap;html=1;" parent="1" vertex="1">
          <mxGeometry x="270" y="-190" width="470" height="350" as="geometry" />
        </mxCell>
        <mxCell id="542AWMEH_CubDqkKcl6f-69" value="&lt;br&gt;&lt;b&gt;:TriageEngine&lt;br&gt;&lt;/b&gt;" style="html=1;dropTarget=0;whiteSpace=wrap;" parent="542AWMEH_CubDqkKcl6f-1" vertex="1">
          <mxGeometry x="80" y="50" width="130" height="60" as="geometry" />
        </mxCell>
        <mxCell id="542AWMEH_CubDqkKcl6f-70" value="" style="shape=module;jettyWidth=8;jettyHeight=4;" parent="542AWMEH_CubDqkKcl6f-69" vertex="1">
          <mxGeometry x="1" width="20" height="20" relative="1" as="geometry">
            <mxPoint x="-27" y="7" as="offset" />
          </mxGeometry>
        </mxCell>
        <mxCell id="542AWMEH_CubDqkKcl6f-74" value=":ER" style="html=1;dropTarget=0;whiteSpace=wrap;" parent="542AWMEH_CubDqkKcl6f-1" vertex="1">
          <mxGeometry x="270" y="50" width="130" height="60" as="geometry" />
        </mxCell>
        <mxCell id="542AWMEH_CubDqkKcl6f-75" value="" style="shape=module;jettyWidth=8;jettyHeight=4;" parent="542AWMEH_CubDqkKcl6f-74" vertex="1">
          <mxGeometry x="1" width="20" height="20" relative="1" as="geometry">
            <mxPoint x="-27" y="7" as="offset" />
          </mxGeometry>
        </mxCell>
        <mxCell id="542AWMEH_CubDqkKcl6f-76" value="&lt;br&gt;&lt;b&gt;:NurseInformation&lt;/b&gt;" style="html=1;dropTarget=0;whiteSpace=wrap;" parent="542AWMEH_CubDqkKcl6f-1" vertex="1">
          <mxGeometry x="270" y="180" width="130" height="60" as="geometry" />
        </mxCell>
        <mxCell id="542AWMEH_CubDqkKcl6f-77" value="" style="shape=module;jettyWidth=8;jettyHeight=4;" parent="542AWMEH_CubDqkKcl6f-76" vertex="1">
          <mxGeometry x="1" width="20" height="20" relative="1" as="geometry">
            <mxPoint x="-27" y="7" as="offset" />
          </mxGeometry>
        </mxCell>
        <mxCell id="542AWMEH_CubDqkKcl6f-80" value="&lt;br&gt;&lt;b&gt;:MedicalInformation&lt;/b&gt;" style="html=1;dropTarget=0;whiteSpace=wrap;" parent="542AWMEH_CubDqkKcl6f-1" vertex="1">
          <mxGeometry x="80" y="180" width="130" height="60" as="geometry" />
        </mxCell>
        <mxCell id="542AWMEH_CubDqkKcl6f-81" value="" style="shape=module;jettyWidth=8;jettyHeight=4;" parent="542AWMEH_CubDqkKcl6f-80" vertex="1">
          <mxGeometry x="1" width="20" height="20" relative="1" as="geometry">
            <mxPoint x="-27" y="7" as="offset" />
          </mxGeometry>
        </mxCell>
        <mxCell id="542AWMEH_CubDqkKcl6f-7" value="" style="ellipse;whiteSpace=wrap;html=1;align=center;aspect=fixed;fillColor=none;strokeColor=none;resizable=0;perimeter=centerPerimeter;rotatable=0;allowArrows=0;points=[];outlineConnect=1;" parent="1" vertex="1">
          <mxGeometry x="130" y="110" width="10" height="10" as="geometry" />
        </mxCell>
        <mxCell id="542AWMEH_CubDqkKcl6f-53" value="" style="ellipse;whiteSpace=wrap;html=1;align=center;aspect=fixed;fillColor=none;strokeColor=none;resizable=0;perimeter=centerPerimeter;rotatable=0;allowArrows=0;points=[];outlineConnect=1;" parent="1" vertex="1">
          <mxGeometry x="130" y="-40" width="10" height="10" as="geometry" />
        </mxCell>
        <mxCell id="542AWMEH_CubDqkKcl6f-57" value="" style="ellipse;whiteSpace=wrap;html=1;align=center;aspect=fixed;fillColor=none;strokeColor=none;resizable=0;perimeter=centerPerimeter;rotatable=0;allowArrows=0;points=[];outlineConnect=1;" parent="1" vertex="1">
          <mxGeometry x="-100" y="285" width="10" height="10" as="geometry" />
        </mxCell>
        <mxCell id="dVPr_QUaL5CJiFu6xjOv-1" value="" style="endArrow=open;endFill=1;endSize=12;html=1;rounded=0;entryX=0;entryY=0.5;entryDx=0;entryDy=0;" parent="1" target="dVPr_QUaL5CJiFu6xjOv-37" edge="1">
          <mxGeometry width="160" relative="1" as="geometry">
            <mxPoint x="40" y="240" as="sourcePoint" />
            <mxPoint x="130" y="300" as="targetPoint" />
          </mxGeometry>
        </mxCell>
        <mxCell id="dVPr_QUaL5CJiFu6xjOv-2" value="" style="rounded=0;orthogonalLoop=1;jettySize=auto;html=1;endArrow=halfCircle;endFill=0;endSize=6;strokeWidth=1;sketch=0;fontSize=12;curved=1;exitX=1;exitY=0.25;exitDx=0;exitDy=0;" parent="1" edge="1">
          <mxGeometry relative="1" as="geometry">
            <mxPoint x="-35" y="240" as="sourcePoint" />
            <mxPoint x="40" y="240.5" as="targetPoint" />
          </mxGeometry>
        </mxCell>
        <mxCell id="dVPr_QUaL5CJiFu6xjOv-4" value="&lt;div&gt;Create&lt;/div&gt;&lt;div&gt;account&lt;br&gt;&lt;/div&gt;" style="text;html=1;align=center;verticalAlign=middle;resizable=0;points=[];autosize=1;strokeColor=none;fillColor=none;" parent="1" vertex="1">
          <mxGeometry y="340" width="70" height="40" as="geometry" />
        </mxCell>
        <mxCell id="dVPr_QUaL5CJiFu6xjOv-5" value="&amp;lt;&amp;lt;subsystem&amp;gt;&amp;gt; Patient Managment" style="swimlane;whiteSpace=wrap;html=1;" parent="1" vertex="1">
          <mxGeometry x="270" y="390" width="620" height="490" as="geometry" />
        </mxCell>
        <mxCell id="dVPr_QUaL5CJiFu6xjOv-6" value="" style="endArrow=none;html=1;rounded=0;" parent="dVPr_QUaL5CJiFu6xjOv-5" edge="1">
          <mxGeometry width="50" height="50" relative="1" as="geometry">
            <mxPoint x="10" y="369.5" as="sourcePoint" />
            <mxPoint x="40" y="370" as="targetPoint" />
          </mxGeometry>
        </mxCell>
        <mxCell id="dVPr_QUaL5CJiFu6xjOv-7" value="&lt;b&gt;&amp;lt;&amp;lt;Component&amp;gt;&amp;gt;&lt;br&gt;UserInformation&lt;/b&gt;" style="html=1;dropTarget=0;whiteSpace=wrap;" parent="dVPr_QUaL5CJiFu6xjOv-5" vertex="1">
          <mxGeometry x="155" y="210" width="160" height="80" as="geometry" />
        </mxCell>
        <mxCell id="dVPr_QUaL5CJiFu6xjOv-8" value="" style="shape=module;jettyWidth=8;jettyHeight=4;" parent="dVPr_QUaL5CJiFu6xjOv-7" vertex="1">
          <mxGeometry x="1" width="20" height="20" relative="1" as="geometry">
            <mxPoint x="-27" y="7" as="offset" />
          </mxGeometry>
        </mxCell>
        <mxCell id="dVPr_QUaL5CJiFu6xjOv-9" value="&lt;b&gt;&amp;lt;&amp;lt;Component&amp;gt;&amp;gt;&lt;br&gt;AccountInformation&lt;/b&gt;" style="html=1;dropTarget=0;whiteSpace=wrap;" parent="dVPr_QUaL5CJiFu6xjOv-5" vertex="1">
          <mxGeometry x="155" y="360" width="160" height="80" as="geometry" />
        </mxCell>
        <mxCell id="dVPr_QUaL5CJiFu6xjOv-10" value="" style="shape=module;jettyWidth=8;jettyHeight=4;" parent="dVPr_QUaL5CJiFu6xjOv-9" vertex="1">
          <mxGeometry x="1" width="20" height="20" relative="1" as="geometry">
            <mxPoint x="-27" y="7" as="offset" />
          </mxGeometry>
        </mxCell>
        <mxCell id="dVPr_QUaL5CJiFu6xjOv-11" value="&lt;b&gt;&amp;lt;&amp;lt;Component&amp;gt;&amp;gt;&lt;br&gt;&lt;/b&gt;&lt;b&gt;TriageRecord&lt;/b&gt;" style="html=1;dropTarget=0;whiteSpace=wrap;" parent="dVPr_QUaL5CJiFu6xjOv-5" vertex="1">
          <mxGeometry x="155" y="60" width="160" height="80" as="geometry" />
        </mxCell>
        <mxCell id="dVPr_QUaL5CJiFu6xjOv-12" value="" style="shape=module;jettyWidth=8;jettyHeight=4;" parent="dVPr_QUaL5CJiFu6xjOv-11" vertex="1">
          <mxGeometry x="1" width="20" height="20" relative="1" as="geometry">
            <mxPoint x="-27" y="7" as="offset" />
          </mxGeometry>
        </mxCell>
        <mxCell id="dVPr_QUaL5CJiFu6xjOv-13" value="" style="rounded=0;orthogonalLoop=1;jettySize=auto;html=1;endArrow=halfCircle;endFill=0;endSize=6;strokeWidth=1;sketch=0;fontSize=12;curved=1;exitX=1;exitY=0.5;exitDx=0;exitDy=0;" parent="dVPr_QUaL5CJiFu6xjOv-5" source="dVPr_QUaL5CJiFu6xjOv-11" edge="1">
          <mxGeometry relative="1" as="geometry">
            <mxPoint x="230" y="99.41" as="sourcePoint" />
            <mxPoint x="490" y="99" as="targetPoint" />
          </mxGeometry>
        </mxCell>
        <mxCell id="dVPr_QUaL5CJiFu6xjOv-14" value="Triage Result" style="edgeLabel;html=1;align=center;verticalAlign=middle;resizable=0;points=[];" parent="dVPr_QUaL5CJiFu6xjOv-13" vertex="1" connectable="0">
          <mxGeometry x="-0.24" relative="1" as="geometry">
            <mxPoint as="offset" />
          </mxGeometry>
        </mxCell>
        <mxCell id="dVPr_QUaL5CJiFu6xjOv-15" value="" style="endArrow=open;html=1;rounded=0;endFill=0;" parent="dVPr_QUaL5CJiFu6xjOv-5" edge="1">
          <mxGeometry width="50" height="50" relative="1" as="geometry">
            <mxPoint x="490" y="100" as="sourcePoint" />
            <mxPoint x="610" y="100" as="targetPoint" />
          </mxGeometry>
        </mxCell>
        <mxCell id="dVPr_QUaL5CJiFu6xjOv-16" value="" style="rounded=0;whiteSpace=wrap;html=1;" parent="dVPr_QUaL5CJiFu6xjOv-5" vertex="1">
          <mxGeometry x="610" y="90" width="20" height="20" as="geometry" />
        </mxCell>
        <mxCell id="dVPr_QUaL5CJiFu6xjOv-17" value="" style="ellipse;whiteSpace=wrap;html=1;align=center;aspect=fixed;fillColor=none;strokeColor=none;resizable=0;perimeter=centerPerimeter;rotatable=0;allowArrows=0;points=[];outlineConnect=1;" parent="dVPr_QUaL5CJiFu6xjOv-5" vertex="1">
          <mxGeometry x="-69.5" y="420" width="10" height="10" as="geometry" />
        </mxCell>
        <mxCell id="dVPr_QUaL5CJiFu6xjOv-18" value="" style="ellipse;whiteSpace=wrap;html=1;align=center;aspect=fixed;fillColor=none;strokeColor=none;resizable=0;perimeter=centerPerimeter;rotatable=0;allowArrows=0;points=[];outlineConnect=1;" parent="dVPr_QUaL5CJiFu6xjOv-5" vertex="1">
          <mxGeometry x="-69.5" y="400" width="10" height="10" as="geometry" />
        </mxCell>
        <mxCell id="dVPr_QUaL5CJiFu6xjOv-19" value="" style="endArrow=oval;html=1;rounded=0;endFill=0;endSize=10;" parent="dVPr_QUaL5CJiFu6xjOv-5" edge="1">
          <mxGeometry width="50" height="50" relative="1" as="geometry">
            <mxPoint y="369.84000000000003" as="sourcePoint" />
            <mxPoint x="-60" y="370" as="targetPoint" />
          </mxGeometry>
        </mxCell>
        <mxCell id="dVPr_QUaL5CJiFu6xjOv-20" value="Get &lt;br&gt;User&lt;br&gt;Credential" style="edgeLabel;html=1;align=center;verticalAlign=middle;resizable=0;points=[];" parent="dVPr_QUaL5CJiFu6xjOv-19" vertex="1" connectable="0">
          <mxGeometry x="0.0762" relative="1" as="geometry">
            <mxPoint x="-3" y="30" as="offset" />
          </mxGeometry>
        </mxCell>
        <mxCell id="dVPr_QUaL5CJiFu6xjOv-21" value="" style="rounded=0;whiteSpace=wrap;html=1;" parent="dVPr_QUaL5CJiFu6xjOv-5" vertex="1">
          <mxGeometry x="-10" y="360" width="20" height="20" as="geometry" />
        </mxCell>
        <mxCell id="dVPr_QUaL5CJiFu6xjOv-22" value="" style="endArrow=oval;html=1;rounded=0;endFill=0;endSize=10;edgeStyle=elbowEdgeStyle;" parent="dVPr_QUaL5CJiFu6xjOv-5" edge="1">
          <mxGeometry width="50" height="50" relative="1" as="geometry">
            <mxPoint x="155" y="370" as="sourcePoint" />
            <mxPoint x="50" y="370" as="targetPoint" />
            <Array as="points">
              <mxPoint x="125" y="370" />
            </Array>
          </mxGeometry>
        </mxCell>
        <mxCell id="dVPr_QUaL5CJiFu6xjOv-23" value="User Validation" style="edgeLabel;html=1;align=center;verticalAlign=middle;resizable=0;points=[];" parent="dVPr_QUaL5CJiFu6xjOv-22" vertex="1" connectable="0">
          <mxGeometry x="0.2738" y="2" relative="1" as="geometry">
            <mxPoint x="9" y="18" as="offset" />
          </mxGeometry>
        </mxCell>
        <mxCell id="dVPr_QUaL5CJiFu6xjOv-24" value="" style="rounded=0;orthogonalLoop=1;jettySize=auto;html=1;endArrow=oval;endFill=0;sketch=0;sourcePerimeterSpacing=0;targetPerimeterSpacing=0;endSize=10;" parent="dVPr_QUaL5CJiFu6xjOv-5" edge="1">
          <mxGeometry relative="1" as="geometry">
            <mxPoint x="230" y="360" as="sourcePoint" />
            <mxPoint x="230" y="330" as="targetPoint" />
          </mxGeometry>
        </mxCell>
        <mxCell id="dVPr_QUaL5CJiFu6xjOv-25" value="" style="rounded=0;orthogonalLoop=1;jettySize=auto;html=1;endArrow=halfCircle;endFill=0;endSize=6;strokeWidth=1;sketch=0;" parent="dVPr_QUaL5CJiFu6xjOv-5" edge="1">
          <mxGeometry relative="1" as="geometry">
            <mxPoint x="230" y="289" as="sourcePoint" />
            <mxPoint x="230" y="330" as="targetPoint" />
          </mxGeometry>
        </mxCell>
        <mxCell id="dVPr_QUaL5CJiFu6xjOv-26" value="&lt;div&gt;Manage account&lt;br&gt;&lt;/div&gt;" style="text;html=1;align=center;verticalAlign=middle;resizable=0;points=[];autosize=1;strokeColor=none;fillColor=none;" parent="dVPr_QUaL5CJiFu6xjOv-5" vertex="1">
          <mxGeometry x="245" y="320" width="110" height="30" as="geometry" />
        </mxCell>
        <mxCell id="dVPr_QUaL5CJiFu6xjOv-27" value="" style="rounded=0;whiteSpace=wrap;html=1;" parent="dVPr_QUaL5CJiFu6xjOv-5" vertex="1">
          <mxGeometry x="-9.5" y="420" width="20" height="20" as="geometry" />
        </mxCell>
        <mxCell id="dVPr_QUaL5CJiFu6xjOv-28" value="" style="endArrow=oval;html=1;rounded=0;endFill=0;endSize=10;edgeStyle=elbowEdgeStyle;exitX=0;exitY=0.5;exitDx=0;exitDy=0;" parent="dVPr_QUaL5CJiFu6xjOv-5" edge="1">
          <mxGeometry width="50" height="50" relative="1" as="geometry">
            <mxPoint x="155.5" y="430" as="sourcePoint" />
            <mxPoint x="50.5" y="430" as="targetPoint" />
            <Array as="points">
              <mxPoint x="105.5" y="430.5" />
            </Array>
          </mxGeometry>
        </mxCell>
        <mxCell id="dVPr_QUaL5CJiFu6xjOv-29" value="Account creation" style="edgeLabel;html=1;align=center;verticalAlign=middle;resizable=0;points=[];" parent="dVPr_QUaL5CJiFu6xjOv-28" vertex="1" connectable="0">
          <mxGeometry x="0.2738" y="2" relative="1" as="geometry">
            <mxPoint x="9" y="18" as="offset" />
          </mxGeometry>
        </mxCell>
        <mxCell id="dVPr_QUaL5CJiFu6xjOv-30" value="" style="endArrow=none;html=1;rounded=0;exitX=1;exitY=0.5;exitDx=0;exitDy=0;" parent="dVPr_QUaL5CJiFu6xjOv-5" source="dVPr_QUaL5CJiFu6xjOv-27" edge="1">
          <mxGeometry width="50" height="50" relative="1" as="geometry">
            <mxPoint x="-9.5" y="431" as="sourcePoint" />
            <mxPoint x="40.5" y="430" as="targetPoint" />
          </mxGeometry>
        </mxCell>
        <mxCell id="dVPr_QUaL5CJiFu6xjOv-31" value="" style="endArrow=oval;html=1;rounded=0;endFill=0;endSize=10;exitX=0;exitY=0.5;exitDx=0;exitDy=0;" parent="dVPr_QUaL5CJiFu6xjOv-5" source="dVPr_QUaL5CJiFu6xjOv-27" edge="1">
          <mxGeometry width="50" height="50" relative="1" as="geometry">
            <mxPoint x="-59.5" y="430" as="sourcePoint" />
            <mxPoint x="-110" y="430" as="targetPoint" />
          </mxGeometry>
        </mxCell>
        <mxCell id="dVPr_QUaL5CJiFu6xjOv-32" value="Submit&lt;br&gt;User&lt;br&gt;Info" style="edgeLabel;html=1;align=center;verticalAlign=middle;resizable=0;points=[];" parent="dVPr_QUaL5CJiFu6xjOv-31" vertex="1" connectable="0">
          <mxGeometry x="0.0762" relative="1" as="geometry">
            <mxPoint x="-3" y="30" as="offset" />
          </mxGeometry>
        </mxCell>
        <mxCell id="dVPr_QUaL5CJiFu6xjOv-33" value="Manage&amp;nbsp;&lt;br&gt;triage record" style="text;html=1;strokeColor=none;fillColor=none;align=center;verticalAlign=middle;whiteSpace=wrap;rounded=0;" parent="dVPr_QUaL5CJiFu6xjOv-5" vertex="1">
          <mxGeometry x="245" y="160" width="60" height="30" as="geometry" />
        </mxCell>
        <mxCell id="dVPr_QUaL5CJiFu6xjOv-34" value="" style="rounded=0;orthogonalLoop=1;jettySize=auto;html=1;endArrow=halfCircle;endFill=0;endSize=6;strokeWidth=1;sketch=0;fontSize=12;curved=1;exitX=1;exitY=0.5;exitDx=0;exitDy=0;" parent="1" edge="1">
          <mxGeometry relative="1" as="geometry">
            <mxPoint x="900" y="491" as="sourcePoint" />
            <mxPoint x="1000" y="490" as="targetPoint" />
          </mxGeometry>
        </mxCell>
        <mxCell id="dVPr_QUaL5CJiFu6xjOv-35" value="Manage Triage Result" style="edgeLabel;html=1;align=center;verticalAlign=middle;resizable=0;points=[];" parent="dVPr_QUaL5CJiFu6xjOv-34" vertex="1" connectable="0">
          <mxGeometry x="0.1804" y="-2" relative="1" as="geometry">
            <mxPoint x="1" y="18" as="offset" />
          </mxGeometry>
        </mxCell>
        <mxCell id="dVPr_QUaL5CJiFu6xjOv-36" value="" style="ellipse;whiteSpace=wrap;html=1;align=center;aspect=fixed;fillColor=none;strokeColor=none;resizable=0;perimeter=centerPerimeter;rotatable=0;allowArrows=0;points=[];outlineConnect=1;" parent="1" vertex="1">
          <mxGeometry x="470" y="370" width="10" height="10" as="geometry" />
        </mxCell>
        <mxCell id="dVPr_QUaL5CJiFu6xjOv-37" value="" style="rounded=0;whiteSpace=wrap;html=1;" parent="1" vertex="1">
          <mxGeometry x="90" y="232" width="20" height="20" as="geometry" />
        </mxCell>
        <mxCell id="dVPr_QUaL5CJiFu6xjOv-38" value="" style="rounded=0;orthogonalLoop=1;jettySize=auto;html=1;endArrow=halfCircle;endFill=0;endSize=6;strokeWidth=1;sketch=0;fontSize=12;curved=1;exitX=1;exitY=0.5;exitDx=0;exitDy=0;" parent="1" source="dVPr_QUaL5CJiFu6xjOv-37" target="dVPr_QUaL5CJiFu6xjOv-39" edge="1">
          <mxGeometry relative="1" as="geometry">
            <mxPoint x="440" y="315" as="sourcePoint" />
          </mxGeometry>
        </mxCell>
        <mxCell id="dVPr_QUaL5CJiFu6xjOv-39" value="" style="ellipse;whiteSpace=wrap;html=1;align=center;aspect=fixed;fillColor=none;strokeColor=none;resizable=0;perimeter=centerPerimeter;rotatable=0;allowArrows=0;points=[];outlineConnect=1;" parent="1" vertex="1">
          <mxGeometry x="160" y="237" width="10" height="10" as="geometry" />
        </mxCell>
        <mxCell id="dVPr_QUaL5CJiFu6xjOv-40" value="Get&lt;br&gt;User&lt;br&gt;Credential" style="text;html=1;strokeColor=none;fillColor=none;align=center;verticalAlign=middle;whiteSpace=wrap;rounded=0;" parent="1" vertex="1">
          <mxGeometry x="105" y="255" width="60" height="30" as="geometry" />
        </mxCell>
        <mxCell id="dVPr_QUaL5CJiFu6xjOv-41" value="" style="endArrow=open;html=1;rounded=0;dashed=1;endFill=0;exitX=0.8;exitY=0.4;exitDx=0;exitDy=0;exitPerimeter=0;" parent="1" source="dVPr_QUaL5CJiFu6xjOv-39" edge="1">
          <mxGeometry width="50" height="50" relative="1" as="geometry">
            <mxPoint x="165" y="92" as="sourcePoint" />
            <mxPoint x="200" y="760" as="targetPoint" />
            <Array as="points">
              <mxPoint x="180" y="242" />
              <mxPoint x="180" y="760" />
            </Array>
          </mxGeometry>
        </mxCell>
        <mxCell id="dVPr_QUaL5CJiFu6xjOv-42" value="" style="endArrow=open;endFill=1;endSize=12;html=1;rounded=0;entryX=0;entryY=0.5;entryDx=0;entryDy=0;" parent="1" target="dVPr_QUaL5CJiFu6xjOv-47" edge="1">
          <mxGeometry width="160" relative="1" as="geometry">
            <mxPoint y="340" as="sourcePoint" />
            <mxPoint x="95" y="398" as="targetPoint" />
          </mxGeometry>
        </mxCell>
        <mxCell id="dVPr_QUaL5CJiFu6xjOv-43" value="" style="rounded=0;orthogonalLoop=1;jettySize=auto;html=1;endArrow=halfCircle;endFill=0;endSize=6;strokeWidth=1;sketch=0;fontSize=12;curved=1;" parent="1" edge="1">
          <mxGeometry relative="1" as="geometry">
            <mxPoint x="-30" y="340" as="sourcePoint" />
            <mxPoint y="340" as="targetPoint" />
          </mxGeometry>
        </mxCell>
        <mxCell id="dVPr_QUaL5CJiFu6xjOv-44" value="" style="rounded=0;orthogonalLoop=1;jettySize=auto;html=1;endArrow=halfCircle;endFill=0;endSize=6;strokeWidth=1;sketch=0;fontSize=12;curved=1;exitX=1;exitY=0.5;exitDx=0;exitDy=0;exitPerimeter=0;" parent="1" source="dVPr_QUaL5CJiFu6xjOv-47" edge="1">
          <mxGeometry relative="1" as="geometry">
            <mxPoint x="120" y="340" as="sourcePoint" />
            <mxPoint x="140" y="340" as="targetPoint" />
          </mxGeometry>
        </mxCell>
        <mxCell id="dVPr_QUaL5CJiFu6xjOv-45" value="" style="endArrow=open;html=1;rounded=0;dashed=1;endFill=0;" parent="1" edge="1">
          <mxGeometry width="50" height="50" relative="1" as="geometry">
            <mxPoint x="140" y="340" as="sourcePoint" />
            <mxPoint x="160" y="810" as="targetPoint" />
            <Array as="points">
              <mxPoint x="160" y="340" />
            </Array>
          </mxGeometry>
        </mxCell>
        <mxCell id="dVPr_QUaL5CJiFu6xjOv-46" value="" style="ellipse;whiteSpace=wrap;html=1;align=center;aspect=fixed;fillColor=none;strokeColor=none;resizable=0;perimeter=centerPerimeter;rotatable=0;allowArrows=0;points=[];outlineConnect=1;" parent="1" vertex="1">
          <mxGeometry x="510" y="710" width="10" height="10" as="geometry" />
        </mxCell>
        <mxCell id="dVPr_QUaL5CJiFu6xjOv-47" value="" style="rounded=0;whiteSpace=wrap;html=1;" parent="1" vertex="1">
          <mxGeometry x="90" y="330" width="20" height="20" as="geometry" />
        </mxCell>
        <mxCell id="dVPr_QUaL5CJiFu6xjOv-48" value="&lt;div&gt;Submit &lt;br&gt;user &lt;br&gt;&lt;/div&gt;&lt;div&gt;info&lt;/div&gt;" style="text;html=1;align=center;verticalAlign=middle;resizable=0;points=[];autosize=1;strokeColor=none;fillColor=none;" parent="1" vertex="1">
          <mxGeometry x="100" y="350" width="60" height="60" as="geometry" />
        </mxCell>
        <mxCell id="dVPr_QUaL5CJiFu6xjOv-49" value="" style="rounded=0;orthogonalLoop=1;jettySize=auto;html=1;endArrow=halfCircle;endFill=0;endSize=6;strokeWidth=1;sketch=0;exitX=0.5;exitY=1;exitDx=0;exitDy=0;" parent="1" source="dVPr_QUaL5CJiFu6xjOv-11" target="dVPr_QUaL5CJiFu6xjOv-51" edge="1">
          <mxGeometry relative="1" as="geometry">
            <mxPoint x="510" y="585" as="sourcePoint" />
          </mxGeometry>
        </mxCell>
        <mxCell id="dVPr_QUaL5CJiFu6xjOv-50" value="" style="rounded=0;orthogonalLoop=1;jettySize=auto;html=1;endArrow=oval;endFill=0;sketch=0;sourcePerimeterSpacing=0;targetPerimeterSpacing=0;endSize=10;exitX=0.5;exitY=0;exitDx=0;exitDy=0;entryX=0.8;entryY=0.4;entryDx=0;entryDy=0;entryPerimeter=0;" parent="1" source="dVPr_QUaL5CJiFu6xjOv-7" target="dVPr_QUaL5CJiFu6xjOv-51" edge="1">
          <mxGeometry relative="1" as="geometry">
            <mxPoint x="470" y="585" as="sourcePoint" />
            <mxPoint x="500" y="570" as="targetPoint" />
          </mxGeometry>
        </mxCell>
        <mxCell id="dVPr_QUaL5CJiFu6xjOv-51" value="" style="ellipse;whiteSpace=wrap;html=1;align=center;aspect=fixed;fillColor=none;strokeColor=none;resizable=0;perimeter=centerPerimeter;rotatable=0;allowArrows=0;points=[];outlineConnect=1;" parent="1" vertex="1">
          <mxGeometry x="500" y="560" width="10" height="10" as="geometry" />
        </mxCell>
      </root>
    </mxGraphModel>
  </diagram>
</mxfile>
